<mxfile host="app.diagrams.net" modified="2023-02-02T08:54:20.112Z" agent="5.0 (Windows NT 10.0; Win64; x64) AppleWebKit/537.36 (KHTML, like Gecko) Chrome/109.0.0.0 Safari/537.36" etag="8D_LKZQ4QJMDBv8fIlIn" version="20.8.13" type="github">
  <diagram name="Page-1" id="J2nJFxSQdsmkeFntTawh">
    <mxGraphModel dx="1120" dy="484" grid="1" gridSize="10" guides="1" tooltips="1" connect="1" arrows="1" fold="1" page="1" pageScale="1" pageWidth="850" pageHeight="1100" math="0" shadow="0">
      <root>
        <mxCell id="0" />
        <mxCell id="1" parent="0" />
        <mxCell id="dOSe5xCB9PC1TA-I-9aR-3" value="ieeetestbed" style="text;html=1;strokeColor=none;fillColor=none;align=center;verticalAlign=middle;whiteSpace=wrap;rounded=0;" vertex="1" parent="1">
          <mxGeometry x="510" y="120" width="70" height="30" as="geometry" />
        </mxCell>
        <mxCell id="dOSe5xCB9PC1TA-I-9aR-4" value="" style="endArrow=none;html=1;rounded=0;" edge="1" parent="1">
          <mxGeometry width="50" height="50" relative="1" as="geometry">
            <mxPoint x="647" y="267" as="sourcePoint" />
            <mxPoint x="647" y="247" as="targetPoint" />
          </mxGeometry>
        </mxCell>
        <mxCell id="dOSe5xCB9PC1TA-I-9aR-5" value="" style="endArrow=classic;html=1;rounded=0;" edge="1" parent="1">
          <mxGeometry width="50" height="50" relative="1" as="geometry">
            <mxPoint x="539" y="169" as="sourcePoint" />
            <mxPoint x="580" y="169" as="targetPoint" />
          </mxGeometry>
        </mxCell>
        <mxCell id="dOSe5xCB9PC1TA-I-9aR-6" value="Open5GS" style="text;html=1;strokeColor=none;fillColor=none;align=center;verticalAlign=middle;whiteSpace=wrap;rounded=0;" vertex="1" parent="1">
          <mxGeometry x="575" y="155" width="70" height="30" as="geometry" />
        </mxCell>
        <mxCell id="dOSe5xCB9PC1TA-I-9aR-7" value="" style="endArrow=none;html=1;rounded=0;" edge="1" parent="1">
          <mxGeometry width="50" height="50" relative="1" as="geometry">
            <mxPoint x="574" y="320" as="sourcePoint" />
            <mxPoint x="574" y="170" as="targetPoint" />
          </mxGeometry>
        </mxCell>
        <mxCell id="dOSe5xCB9PC1TA-I-9aR-8" value="Docker" style="text;html=1;strokeColor=none;fillColor=none;align=center;verticalAlign=middle;whiteSpace=wrap;rounded=0;" vertex="1" parent="1">
          <mxGeometry x="602" y="186" width="70" height="30" as="geometry" />
        </mxCell>
        <mxCell id="dOSe5xCB9PC1TA-I-9aR-9" value="Helm" style="text;html=1;strokeColor=none;fillColor=none;align=center;verticalAlign=middle;whiteSpace=wrap;rounded=0;" vertex="1" parent="1">
          <mxGeometry x="597" y="209" width="70" height="30" as="geometry" />
        </mxCell>
        <mxCell id="dOSe5xCB9PC1TA-I-9aR-10" value="" style="endArrow=classic;html=1;rounded=0;" edge="1" parent="1">
          <mxGeometry width="50" height="50" relative="1" as="geometry">
            <mxPoint x="574" y="199" as="sourcePoint" />
            <mxPoint x="615" y="199" as="targetPoint" />
          </mxGeometry>
        </mxCell>
        <mxCell id="dOSe5xCB9PC1TA-I-9aR-11" value="" style="endArrow=classic;html=1;rounded=0;" edge="1" parent="1">
          <mxGeometry width="50" height="50" relative="1" as="geometry">
            <mxPoint x="574" y="222" as="sourcePoint" />
            <mxPoint x="615" y="222" as="targetPoint" />
          </mxGeometry>
        </mxCell>
        <mxCell id="dOSe5xCB9PC1TA-I-9aR-12" value="" style="endArrow=none;html=1;rounded=0;" edge="1" parent="1">
          <mxGeometry width="50" height="50" relative="1" as="geometry">
            <mxPoint x="611" y="280" as="sourcePoint" />
            <mxPoint x="611" y="221" as="targetPoint" />
          </mxGeometry>
        </mxCell>
        <mxCell id="dOSe5xCB9PC1TA-I-9aR-13" value="" style="endArrow=classic;html=1;rounded=0;" edge="1" parent="1">
          <mxGeometry width="50" height="50" relative="1" as="geometry">
            <mxPoint x="612" y="243" as="sourcePoint" />
            <mxPoint x="653" y="243" as="targetPoint" />
          </mxGeometry>
        </mxCell>
        <mxCell id="dOSe5xCB9PC1TA-I-9aR-14" value="helm-chart-db-utils" style="text;html=1;strokeColor=none;fillColor=none;align=center;verticalAlign=middle;whiteSpace=wrap;rounded=0;" vertex="1" parent="1">
          <mxGeometry x="641" y="228" width="128" height="30" as="geometry" />
        </mxCell>
        <mxCell id="dOSe5xCB9PC1TA-I-9aR-17" value="" style="endArrow=none;html=1;rounded=0;" edge="1" parent="1">
          <mxGeometry width="50" height="50" relative="1" as="geometry">
            <mxPoint x="540" y="168" as="sourcePoint" />
            <mxPoint x="540" y="148" as="targetPoint" />
          </mxGeometry>
        </mxCell>
        <mxCell id="dOSe5xCB9PC1TA-I-9aR-18" value="" style="endArrow=classic;html=1;rounded=0;" edge="1" parent="1">
          <mxGeometry width="50" height="50" relative="1" as="geometry">
            <mxPoint x="646" y="266" as="sourcePoint" />
            <mxPoint x="687" y="266" as="targetPoint" />
          </mxGeometry>
        </mxCell>
        <mxCell id="dOSe5xCB9PC1TA-I-9aR-19" value="templates" style="text;html=1;strokeColor=none;fillColor=none;align=center;verticalAlign=middle;whiteSpace=wrap;rounded=0;" vertex="1" parent="1">
          <mxGeometry x="684" y="251" width="70" height="30" as="geometry" />
        </mxCell>
        <mxCell id="dOSe5xCB9PC1TA-I-9aR-20" value="" style="endArrow=classic;html=1;rounded=0;" edge="1" parent="1">
          <mxGeometry width="50" height="50" relative="1" as="geometry">
            <mxPoint x="610" y="281" as="sourcePoint" />
            <mxPoint x="651" y="281" as="targetPoint" />
          </mxGeometry>
        </mxCell>
        <mxCell id="dOSe5xCB9PC1TA-I-9aR-21" value="helm-chart-open5gs" style="text;html=1;strokeColor=none;fillColor=none;align=center;verticalAlign=middle;whiteSpace=wrap;rounded=0;" vertex="1" parent="1">
          <mxGeometry x="642" y="270" width="128" height="30" as="geometry" />
        </mxCell>
        <mxCell id="dOSe5xCB9PC1TA-I-9aR-22" value="templates" style="text;html=1;strokeColor=none;fillColor=none;align=center;verticalAlign=middle;whiteSpace=wrap;rounded=0;" vertex="1" parent="1">
          <mxGeometry x="684" y="294" width="70" height="30" as="geometry" />
        </mxCell>
        <mxCell id="dOSe5xCB9PC1TA-I-9aR-23" value="" style="endArrow=none;html=1;rounded=0;" edge="1" parent="1">
          <mxGeometry width="50" height="50" relative="1" as="geometry">
            <mxPoint x="647" y="307" as="sourcePoint" />
            <mxPoint x="647" y="287" as="targetPoint" />
          </mxGeometry>
        </mxCell>
        <mxCell id="dOSe5xCB9PC1TA-I-9aR-26" value="" style="endArrow=classic;html=1;rounded=0;" edge="1" parent="1">
          <mxGeometry width="50" height="50" relative="1" as="geometry">
            <mxPoint x="648" y="308" as="sourcePoint" />
            <mxPoint x="689" y="308" as="targetPoint" />
          </mxGeometry>
        </mxCell>
        <mxCell id="dOSe5xCB9PC1TA-I-9aR-27" value="" style="endArrow=classic;html=1;rounded=0;" edge="1" parent="1">
          <mxGeometry width="50" height="50" relative="1" as="geometry">
            <mxPoint x="574" y="320" as="sourcePoint" />
            <mxPoint x="615" y="320" as="targetPoint" />
          </mxGeometry>
        </mxCell>
        <mxCell id="dOSe5xCB9PC1TA-I-9aR-28" value="Utils" style="text;html=1;strokeColor=none;fillColor=none;align=center;verticalAlign=middle;whiteSpace=wrap;rounded=0;" vertex="1" parent="1">
          <mxGeometry x="594" y="306" width="70" height="30" as="geometry" />
        </mxCell>
      </root>
    </mxGraphModel>
  </diagram>
</mxfile>
